<?xml version="1.0" encoding="UTF-8" standalone="no"?><!-- Generator: Gravit.io --><svg xmlns="http://www.w3.org/2000/svg" xmlns:xlink="http://www.w3.org/1999/xlink" style="isolation:isolate" viewBox="0 0 71.6 71.5" width="71.6pt" height="71.5pt"><defs><clipPath id="_clipPath_A6wnrIwmPk30GymLB5a0Pr8YBncOGrmX"><rect width="71.6" height="71.5"/></clipPath></defs><g clip-path="url(#_clipPath_A6wnrIwmPk30GymLB5a0Pr8YBncOGrmX)"><rect width="71.6" height="71.5" style="fill:rgb(234,234,234)" fill-opacity="0"/><g><mask id="_mask_koOejV3fM0wyAu24smkUerdq75Ik6hoV"><circle vector-effect="non-scaling-stroke" cx="35.82032228819102" cy="35.75" r="35.75" fill="white" stroke="none"/></mask><circle vector-effect="non-scaling-stroke" cx="35.82032228819102" cy="35.75" r="35.75" fill="rgb(255,255,255)"/><circle vector-effect="non-scaling-stroke" cx="35.82032228819102" cy="35.75" r="35.75" fill="rgb(255,255,255)" mask="url(#_mask_koOejV3fM0wyAu24smkUerdq75Ik6hoV)" stroke-width="6" stroke="rgb(38,38,38)" stroke-linejoin="miter" stroke-linecap="square" stroke-miterlimit="3"/><mask id="_mask_sYIx4s3sarytzjOGwOMw9apwTGGM8yRS"><path d=" M 62.777 12.188 C 73.297 24.361 75.439 43.793 63.25 58.68 Q 49.626 2.85 49.75 2.898 C 54.87 4.908 59.285 8.148 62.777 12.188 Z " fill="white" stroke="none"/></mask><path d=" M 62.777 12.188 C 73.297 24.361 75.439 43.793 63.25 58.68 Q 49.626 2.85 49.75 2.898 C 54.87 4.908 59.285 8.148 62.777 12.188 Z " fill="none"/><path d=" M 62.777 12.188 C 73.297 24.361 75.439 43.793 63.25 58.68 Q 49.626 2.85 49.75 2.898 C 54.87 4.908 59.285 8.148 62.777 12.188 Z " fill="none" mask="url(#_mask_sYIx4s3sarytzjOGwOMw9apwTGGM8yRS)" vector-effect="non-scaling-stroke" stroke-width="4" stroke="rgb(38,38,38)" stroke-linejoin="miter" stroke-linecap="square" stroke-miterlimit="3"/><mask id="_mask_oDJhkDg83UhyStUaOSBrsrNnQWw1C3KT"><path d=" M 8.307 58.68 Q 21.932 2.85 21.807 2.898 C 1.261 10.962 -7.927 38.852 8.307 58.68 Z " fill="white" stroke="none"/></mask><path d=" M 8.307 58.68 Q 21.932 2.85 21.807 2.898 C 1.261 10.962 -7.927 38.852 8.307 58.68 Z " fill="none"/><path d=" M 8.307 58.68 Q 21.932 2.85 21.807 2.898 C 1.261 10.962 -7.927 38.852 8.307 58.68 Z " fill="none" mask="url(#_mask_oDJhkDg83UhyStUaOSBrsrNnQWw1C3KT)" vector-effect="non-scaling-stroke" stroke-width="4" stroke="rgb(38,38,38)" stroke-linejoin="miter" stroke-linecap="square" stroke-miterlimit="3"/></g></g></svg>