<?xml version="1.0" encoding="UTF-8" standalone="no"?><!-- Generator: Gravit.io --><svg xmlns="http://www.w3.org/2000/svg" xmlns:xlink="http://www.w3.org/1999/xlink" style="isolation:isolate" viewBox="0 0 64 64" width="64pt" height="64pt"><defs><clipPath id="_clipPath_8jyAjNduYtAX6vGLQjLqSoPLhyhLamEM"><rect width="64" height="64"/></clipPath></defs><g clip-path="url(#_clipPath_8jyAjNduYtAX6vGLQjLqSoPLhyhLamEM)"><rect width="64" height="64" style="fill:rgb(234,234,234)" fill-opacity="0"/><g><mask id="_mask_XxMmbnriB3Aely1zXCxIptb3TnWK5Kd0"><circle vector-effect="non-scaling-stroke" cx="32" cy="32" r="32" fill="white" stroke="none"/></mask><circle vector-effect="non-scaling-stroke" cx="32" cy="32" r="32" fill="rgb(255,255,255)"/><circle vector-effect="non-scaling-stroke" cx="32" cy="32" r="32" fill="rgb(255,255,255)" mask="url(#_mask_XxMmbnriB3Aely1zXCxIptb3TnWK5Kd0)" stroke-width="4" stroke="rgb(38,38,38)" stroke-linejoin="miter" stroke-linecap="butt" stroke-miterlimit="4"/><circle vector-effect="non-scaling-stroke" cx="32.000000000000455" cy="32.00000000000003" r="28" fill="rgb(255,255,255)"/><path d=" M 32.76 23.78 C 31.13 11.34 21.68 7 13.4 11.36 C 9.51 13.43 7.6 20.31 12 24 C 16.16 27.44 20.57 24.76 24.16 29.18 C 25.445 25.618 28.993 23.39 32.76 23.78 Z " fill="rgb(38,38,38)"/><path d=" M 24.56 35.66 C 14.84 43.59 16.17 53.91 24.25 58.66 C 28.07 60.87 34.93 58.88 35.7 53.16 C 36.43 47.81 31.81 45.48 33.7 40.16 C 29.982 40.934 26.214 39.079 24.56 35.66 Z " fill="rgb(38,38,38)"/><path d=" M 38.83 36.63 C 50.55 41.2 58.9 35 59 25.68 C 59.08 21.29 53.93 16.26 48.57 18.39 C 43.57 20.39 43.79 25.53 38.19 26.54 C 40.681 29.363 40.944 33.515 38.83 36.63 Z " fill="rgb(38,38,38)"/><circle vector-effect="non-scaling-stroke" cx="31.99999999999931" cy="31.999999999999943" r="5.679999999999998" fill="rgb(38,38,38)"/></g></g></svg>