<?xml version="1.0" encoding="UTF-8" standalone="no"?><!-- Generator: Gravit.io --><svg xmlns="http://www.w3.org/2000/svg" xmlns:xlink="http://www.w3.org/1999/xlink" style="isolation:isolate" viewBox="0 0 859 752.5" width="859pt" height="752.5pt"><line x1="180.8" y1="699" x2="332.4" y2="699" vector-effect="non-scaling-stroke" stroke-width="4" stroke="rgb(0,157,255)" stroke-linejoin="round" stroke-linecap="round" stroke-miterlimit="3"/><path d=" M 141 699 L 2 699 L 2 141 L 336 141" fill="none" vector-effect="non-scaling-stroke" stroke-width="4" stroke="rgb(253,135,0)" stroke-linejoin="round" stroke-linecap="round" stroke-miterlimit="3"/><path d=" M 820 407 L 820 699 L 466 699" fill="none" vector-effect="non-scaling-stroke" stroke-width="4" stroke="rgb(0,208,128)" stroke-linejoin="round" stroke-linecap="round" stroke-miterlimit="3"/><path d=" M 820 403.93 L 820 141 L 466 141" fill="none" vector-effect="non-scaling-stroke" stroke-width="4" stroke="rgb(255,0,0)" stroke-linejoin="round" stroke-linecap="round" stroke-miterlimit="3"/><g><path d=" M 329.5 559.5 L 471.5 559.5 L 471.5 751 L 329.5 751 L 329.5 559.5 Z " fill="rgb(64,64,64)" vector-effect="non-scaling-stroke" stroke-width="3" stroke="rgb(38,38,38)" stroke-linejoin="round" stroke-linecap="round" stroke-miterlimit="3"/><linearGradient id="_lgradient_22" x1="-0.006194690265487246" y1="0.5130952380952357" x2="1" y2="0.4999999999999992"><stop offset="0%" stop-opacity="1" style="stop-color:rgb(0,157,255)"/><stop offset="100%" stop-opacity="1" style="stop-color:rgb(0,208,128)"/></linearGradient><path d=" M 330.969 699 L 365.5 699 L 401.25 672.25 L 401.25 724.75 L 436.25 699 L 470.023 699" fill="none" vector-effect="non-scaling-stroke" stroke-width="4" stroke="url(#_lgradient_22)" stroke-linejoin="round" stroke-linecap="butt" stroke-miterlimit="3"/><line x1="329.5" y1="647.4" x2="471.5" y2="647.4" vector-effect="non-scaling-stroke" stroke-width="3" stroke="rgb(38,38,38)" stroke-linejoin="round" stroke-linecap="butt" stroke-miterlimit="3"/></g><g><path d=" M 329.5 1.5 L 471.5 1.5 L 471.5 193 L 329.5 193 L 329.5 1.5 Z " fill="rgb(64,64,64)" vector-effect="non-scaling-stroke" stroke-width="3" stroke="rgb(38,38,38)" stroke-linejoin="round" stroke-linecap="round" stroke-miterlimit="3"/><line x1="329.5" y1="89.4" x2="471.5" y2="89.4" vector-effect="non-scaling-stroke" stroke-width="3" stroke="rgb(38,38,38)" stroke-linejoin="round" stroke-linecap="butt" stroke-miterlimit="3"/><linearGradient id="_lgradient_23" x1="-0.006194690265487246" y1="0.5130952380952357" x2="1" y2="0.4999999999999992"><stop offset="0%" stop-opacity="1" style="stop-color:rgb(253,135,0)"/><stop offset="100%" stop-opacity="1" style="stop-color:rgb(255,0,0)"/></linearGradient><path d=" M 330.969 141 L 365.5 141 L 401.25 114.25 L 401.25 166.75 L 436.25 141 L 470.023 141" fill="none" vector-effect="non-scaling-stroke" stroke-width="4" stroke="url(#_lgradient_23)" stroke-linejoin="round" stroke-linecap="butt" stroke-miterlimit="3"/></g><g><path d=" M 157.023 699.053 L 163.544 702.709 L 157.023 712.852 L 150.642 702.709 L 157.023 699.053 Z " fill="rgb(138,138,138)" vector-effect="non-scaling-stroke" stroke-width="2" stroke="rgb(38,38,38)" stroke-linejoin="round" stroke-linecap="round" stroke-miterlimit="3"/><path d=" M 131.077 713.766 L 131.077 684.234 L 182.968 713.766 L 182.968 684.234 L 131.077 713.766 Z " fill="rgb(138,138,138)" vector-effect="non-scaling-stroke" stroke-width="2" stroke="rgb(38,38,38)" stroke-linejoin="round" stroke-linecap="round" stroke-miterlimit="3"/></g><g><circle vector-effect="non-scaling-stroke" cx="820.0351769398842" cy="407.0000254695559" r="35.75" fill="rgb(138,138,138)" stroke-width="3" stroke="rgb(38,38,38)" stroke-linejoin="miter" stroke-linecap="square" stroke-miterlimit="3"/><mask id="_mask_tF1bvDt2naIxFv7kSLO2NivNQcy4wNh2"><path d=" M 846.992 383.438 C 857.512 395.611 859.654 415.043 847.465 429.93 Q 833.841 374.1 833.965 374.148 C 839.085 376.158 843.5 379.398 846.992 383.438 Z " fill="white" stroke="none"/></mask><path d=" M 846.992 383.438 C 857.512 395.611 859.654 415.043 847.465 429.93 Q 833.841 374.1 833.965 374.148 C 839.085 376.158 843.5 379.398 846.992 383.438 Z " fill="none"/><path d=" M 846.992 383.438 C 857.512 395.611 859.654 415.043 847.465 429.93 Q 833.841 374.1 833.965 374.148 C 839.085 376.158 843.5 379.398 846.992 383.438 Z " fill="none" mask="url(#_mask_tF1bvDt2naIxFv7kSLO2NivNQcy4wNh2)" vector-effect="non-scaling-stroke" stroke-width="4" stroke="rgb(38,38,38)" stroke-linejoin="miter" stroke-linecap="square" stroke-miterlimit="3"/><mask id="_mask_Wbs1yPQMsT4Fz5AYufqlBGWyDXMgFYWy"><path d=" M 792.522 429.93 Q 806.147 374.1 806.022 374.148 C 785.476 382.212 776.288 410.102 792.522 429.93 Z " fill="white" stroke="none"/></mask><path d=" M 792.522 429.93 Q 806.147 374.1 806.022 374.148 C 785.476 382.212 776.288 410.102 792.522 429.93 Z " fill="none"/><path d=" M 792.522 429.93 Q 806.147 374.1 806.022 374.148 C 785.476 382.212 776.288 410.102 792.522 429.93 Z " fill="none" mask="url(#_mask_Wbs1yPQMsT4Fz5AYufqlBGWyDXMgFYWy)" vector-effect="non-scaling-stroke" stroke-width="4" stroke="rgb(38,38,38)" stroke-linejoin="miter" stroke-linecap="square" stroke-miterlimit="3"/></g><g><circle vector-effect="non-scaling-stroke" cx="400.50002068988374" cy="45" r="32" fill="rgb(138,138,138)" stroke-width="3" stroke="rgb(38,38,38)" stroke-linejoin="miter" stroke-linecap="butt" stroke-miterlimit="4"/><path d=" M 401.26 36.78 C 399.63 24.34 390.18 20 381.9 24.36 C 378.01 26.43 376.1 33.31 380.5 37 C 384.66 40.44 389.07 37.76 392.66 42.18 C 393.945 38.618 397.493 36.39 401.26 36.78 Z " fill="rgb(38,38,38)"/><path d=" M 393.06 48.66 C 383.34 56.59 384.67 66.91 392.75 71.66 C 396.57 73.87 403.43 71.88 404.2 66.16 C 404.93 60.81 400.31 58.48 402.2 53.16 C 398.482 53.934 394.714 52.079 393.06 48.66 Z " fill="rgb(38,38,38)"/><path d=" M 407.33 49.63 C 419.05 54.2 427.4 48 427.5 38.68 C 427.58 34.29 422.43 29.26 417.07 31.39 C 412.07 33.39 412.29 38.53 406.69 39.54 C 409.181 42.363 409.444 46.515 407.33 49.63 Z " fill="rgb(38,38,38)"/><circle vector-effect="non-scaling-stroke" cx="400.50002068988306" cy="44.999999999999936" r="5.680000000000007" fill="rgb(38,38,38)"/></g><g><circle vector-effect="non-scaling-stroke" cx="400.50002068988374" cy="604" r="32" fill="rgb(138,138,138)" stroke-width="3" stroke="rgb(38,38,38)" stroke-linejoin="miter" stroke-linecap="butt" stroke-miterlimit="4"/><path d=" M 401.26 595.78 C 399.63 583.34 390.18 579 381.9 583.36 C 378.01 585.43 376.1 592.31 380.5 596 C 384.66 599.44 389.07 596.76 392.66 601.18 C 393.945 597.618 397.493 595.39 401.26 595.78 Z " fill="rgb(38,38,38)"/><path d=" M 393.06 607.66 C 383.34 615.59 384.67 625.91 392.75 630.66 C 396.57 632.87 403.43 630.88 404.2 625.16 C 404.93 619.81 400.31 617.48 402.2 612.16 C 398.482 612.934 394.714 611.079 393.06 607.66 Z " fill="rgb(38,38,38)"/><path d=" M 407.33 608.63 C 419.05 613.2 427.4 607 427.5 597.68 C 427.58 593.29 422.43 588.26 417.07 590.39 C 412.07 592.39 412.29 597.53 406.69 598.54 C 409.181 601.363 409.444 605.515 407.33 608.63 Z " fill="rgb(38,38,38)"/><circle vector-effect="non-scaling-stroke" cx="400.50002068988306" cy="603.9999999999999" r="5.680000000000007" fill="rgb(38,38,38)"/></g></svg>