<svg xmlns="http://www.w3.org/2000/svg" xmlns:xlink="http://www.w3.org/1999/xlink" viewBox="0 0 859 752.5" width="1145.333" height="1003.333" xmlns:v="https://vecta.io/nano"><style><![CDATA[.B{stroke:#262626}.C{stroke-miterlimit:3}.D{stroke-width:4}.E{stroke-linejoin:round}.F{stroke-width:3}.G{fill:#8a8a8a}]]></style><g stroke-linecap="round" class="C D E"><path vector-effect="non-scaling-stroke" stroke="#009dff" d="M180.8 699h151.6"/><g fill="none"><path d="M141 699H2V141h334" vector-effect="non-scaling-stroke" stroke="#fd8700"/><path d="M820 407v292H466" vector-effect="non-scaling-stroke" stroke="#00d080"/><path d="M820 403.93V141H466" vector-effect="non-scaling-stroke" stroke="red"/></g></g><path d="M329.5 559.5h142V751h-142V559.5z" fill="#404040" vector-effect="non-scaling-stroke" class="B C E F"/><linearGradient id="A" x1="-.006" y1=".513" x2="1" y2=".5"><stop offset="0%" stop-color="#009dff"/><stop offset="100%" stop-color="#00d080"/></linearGradient><g class="C E"><path d=" M 330.969 699 L 365.5 699 L 401.25 672.25 L 401.25 724.75 L 436.25 699 L 470.023 699" fill="none" vector-effect="non-scaling-stroke" stroke="url(#A)" class="D"/><g class="B F"><path vector-effect="non-scaling-stroke" d="M329.5 647.4h142"/><path d="M329.5 1.5h142V193h-142V1.5z" fill="#404040" vector-effect="non-scaling-stroke"/><path vector-effect="non-scaling-stroke" d="M329.5 89.4h142"/></g></g><linearGradient id="B" x1="-.006" y1=".513" x2="1" y2=".5"><stop offset="0%" stop-color="#fd8700"/><stop offset="100%" stop-color="red"/></linearGradient><g class="C E"><path d=" M 330.969 141 L 365.5 141 L 401.25 114.25 L 401.25 166.75 L 436.25 141 L 470.023 141" fill="none" vector-effect="non-scaling-stroke" stroke="url(#B)" class="D"/><g stroke-width="2" class="B G"><path d="M157.023 699.053l6.521 3.656-6.521 10.143-6.381-10.143 6.381-3.656z" vector-effect="non-scaling-stroke"/><path d="M131.077 713.766v-29.532l51.891 29.532v-29.532l-51.891 29.532z" vector-effect="non-scaling-stroke"/></g></g><mask id="C"><circle vector-effect="non-scaling-stroke" cx="820.035" cy="407" r="35.75" fill="#fff"/></mask><g class="G"><circle vector-effect="non-scaling-stroke" cx="820.035" cy="407" r="35.75"/><circle vector-effect="non-scaling-stroke" cx="820.035" cy="407" r="35.75" mask="url(#C)" stroke-width="6" class="B"/></g><mask id="D"><path d="M846.992 383.438c10.52 12.173 12.662 31.605.473 46.492q-13.624-55.83-13.5-55.782c5.12 2.01 9.535 5.25 13.027 9.29z" fill="#fff"/></mask><path d="M846.992 383.438c10.52 12.173 12.662 31.605.473 46.492q-13.624-55.83-13.5-55.782c5.12 2.01 9.535 5.25 13.027 9.29z" fill="none" mask="url(#D)" vector-effect="non-scaling-stroke" class="B C D"/><mask id="E"><path d="M792.522 429.93q13.625-55.83 13.5-55.782c-20.546 8.064-29.734 35.954-13.5 55.782z" fill="#fff"/></mask><g class="B"><path d="M792.522 429.93q13.625-55.83 13.5-55.782c-20.546 8.064-29.734 35.954-13.5 55.782z" fill="none" mask="url(#E)" vector-effect="non-scaling-stroke" class="C D"/><circle vector-effect="non-scaling-stroke" cx="400.5" cy="45" r="32" class="F G"/></g><g fill="#262626"><path d="M401.26 36.78C399.63 24.34 390.18 20 381.9 24.36c-3.89 2.07-5.8 8.95-1.4 12.64 4.16 3.44 8.57.76 12.16 5.18a8.24 8.24 0 0 1 8.6-5.4z"/><use xlink:href="#G"/><path d="M407.33 49.63C419.05 54.2 427.4 48 427.5 38.68c.08-4.39-5.07-9.42-10.43-7.29-5 2-4.78 7.14-10.38 8.15a8.25 8.25 0 0 1 .64 10.09z"/><circle vector-effect="non-scaling-stroke" cx="400.5" cy="45" r="5.68"/></g><circle vector-effect="non-scaling-stroke" cx="400.5" cy="604" r="32" class="B F G"/><g fill="#262626"><path d="M401.26 595.78c-1.63-12.44-11.08-16.78-19.36-12.42-3.89 2.07-5.8 8.95-1.4 12.64 4.16 3.44 8.57.76 12.16 5.18a8.24 8.24 0 0 1 8.6-5.4z"/><use xlink:href="#G" y="559"/><path d="M407.33 608.63c11.72 4.57 20.07-1.63 20.17-10.95.08-4.39-5.07-9.42-10.43-7.29-5 2-4.78 7.14-10.38 8.15a8.25 8.25 0 0 1 .64 10.09z"/><circle vector-effect="non-scaling-stroke" cx="400.5" cy="604" r="5.68"/></g><defs ><path id="G" d="M393.06 48.66c-9.72 7.93-8.39 18.25-.31 23 3.82 2.21 10.68.22 11.45-5.5.73-5.35-3.89-7.68-2-13a8.28 8.28 0 0 1-9.14-4.5z"/></defs></svg>