<?xml version="1.0" encoding="UTF-8" standalone="no"?><!-- Generator: Gravit.io --><svg xmlns="http://www.w3.org/2000/svg" xmlns:xlink="http://www.w3.org/1999/xlink" style="isolation:isolate" viewBox="0 0 822 752.5" width="822pt" height="752.5pt"><line x1="180.8" y1="699" x2="332.4" y2="699" vector-effect="non-scaling-stroke" stroke-width="4" stroke="rgb(0,157,255)" stroke-linejoin="round" stroke-linecap="round" stroke-miterlimit="3"/><path d=" M 141 699 L 2 699 L 2 141 L 336 141" fill="none" vector-effect="non-scaling-stroke" stroke-width="4" stroke="rgb(253,135,0)" stroke-linejoin="round" stroke-linecap="round" stroke-miterlimit="3"/><path d=" M 820 407 L 820 699 L 466 699" fill="none" vector-effect="non-scaling-stroke" stroke-width="4" stroke="rgb(0,208,128)" stroke-linejoin="round" stroke-linecap="round" stroke-miterlimit="3"/><path d=" M 820 403.93 L 820 141 L 466 141" fill="none" vector-effect="non-scaling-stroke" stroke-width="4" stroke="rgb(255,0,0)" stroke-linejoin="round" stroke-linecap="round" stroke-miterlimit="3"/><g><path d=" M 329.5 559.5 L 471.5 559.5 L 471.5 751 L 329.5 751 L 329.5 559.5 Z " fill="rgb(255,255,255)" vector-effect="non-scaling-stroke" stroke-width="3" stroke="rgb(38,38,38)" stroke-linejoin="round" stroke-linecap="round" stroke-miterlimit="3"/><linearGradient id="_lgradient_18" x1="-0.006194690265487246" y1="0.5130952380952357" x2="1" y2="0.4999999999999992"><stop offset="0%" stop-opacity="1" style="stop-color:rgb(0,157,255)"/><stop offset="100%" stop-opacity="1" style="stop-color:rgb(0,208,128)"/></linearGradient><path d=" M 330.969 699 L 365.5 699 L 401.25 672.25 L 401.25 724.75 L 436.25 699 L 470.023 699" fill="none" vector-effect="non-scaling-stroke" stroke-width="4" stroke="url(#_lgradient_18)" stroke-linejoin="round" stroke-linecap="butt" stroke-miterlimit="3"/><line x1="329.5" y1="647.4" x2="471.5" y2="647.4" vector-effect="non-scaling-stroke" stroke-width="3" stroke="rgb(38,38,38)" stroke-linejoin="round" stroke-linecap="butt" stroke-miterlimit="3"/></g><g><path d=" M 329.5 1.5 L 471.5 1.5 L 471.5 193 L 329.5 193 L 329.5 1.5 Z " fill="rgb(255,255,255)" vector-effect="non-scaling-stroke" stroke-width="3" stroke="rgb(38,38,38)" stroke-linejoin="round" stroke-linecap="round" stroke-miterlimit="3"/><line x1="329.5" y1="89.4" x2="471.5" y2="89.4" vector-effect="non-scaling-stroke" stroke-width="3" stroke="rgb(38,38,38)" stroke-linejoin="round" stroke-linecap="butt" stroke-miterlimit="3"/><linearGradient id="_lgradient_19" x1="-0.006194690265487246" y1="0.5130952380952357" x2="1" y2="0.4999999999999992"><stop offset="0%" stop-opacity="1" style="stop-color:rgb(253,135,0)"/><stop offset="100%" stop-opacity="1" style="stop-color:rgb(255,0,0)"/></linearGradient><path d=" M 330.969 141 L 365.5 141 L 401.25 114.25 L 401.25 166.75 L 436.25 141 L 470.023 141" fill="none" vector-effect="non-scaling-stroke" stroke-width="4" stroke="url(#_lgradient_19)" stroke-linejoin="round" stroke-linecap="butt" stroke-miterlimit="3"/></g><g><path d=" M 157.023 699.053 L 163.544 702.709 L 157.023 712.852 L 150.642 702.709 L 157.023 699.053 Z " fill="rgb(255,255,255)" vector-effect="non-scaling-stroke" stroke-width="2" stroke="rgb(38,38,38)" stroke-linejoin="round" stroke-linecap="round" stroke-miterlimit="3"/><path d=" M 131.077 713.766 L 131.077 684.234 L 182.968 713.766 L 182.968 684.234 L 131.077 713.766 Z " fill="rgb(255,255,255)" vector-effect="non-scaling-stroke" stroke-width="2" stroke="rgb(38,38,38)" stroke-linejoin="round" stroke-linecap="round" stroke-miterlimit="3"/></g></svg>